#!OML:ASF H:\GeneralSubjects\Female5\Project 1\Capture day 1\Session 1\Female5.ASF
:FULLY-SPECIFIED
:DEGREES
313
root -6.51399 15.8106 2.1465 177.96 -83.4009 -166.444
lowerback 6.60713 1.28509 -2.65985
upperback -8.71961 1.34406 1.38415
thorax -13.3402 0.900089 2.79196
lowerneck -10.8346 1.95678 -2.18777
upperneck 51.5965 -0.631103 -0.947637
head 24.8059 -2.19098 -0.915727
rclavicle -1.51822e-014 3.27995e-015
rhumerus -41.5661 33.9825 -89.8797
rradius 29.9794
rwrist -9.31951
rhand -17.1298 -23.6546
rfingers 7.12502
rthumb 9.11006 -53.4379
lclavicle -1.51822e-014 3.27995e-015
lhumerus -37.4122 -9.85477 92.303
lradius 26.5666
lwrist -6.8125
lhand -24.2711 35.0718
lfingers 7.12502
lthumb 2.2155 65.0401
rfemur -23.2149 21.0332 22.3245
rtibia -6.08986
rfoot -54.3585 -39.3416
rtoes 7.54549
lfemur 6.77766 -42.3431 -37.5959
ltibia -5.7919
lfoot -39.9074 33.3829
ltoes -55.858
314
root -6.63054 15.7886 2.11137 183.972 -83.5753 -172.218
lowerback 6.17063 1.24026 -3.11747
upperback -8.83291 1.21046 1.25805
thorax -13.2031 0.868813 2.93929
lowerneck -11.3493 1.94665 -3.03706
upperneck 51.9276 -0.93342 0.0879121
head 25.4833 -2.38692 -0.227346
rclavicle 1.11071e-014 1.03368e-014
rhumerus -41.5386 32.6422 -88.9343
rradius 29.5331
rwrist -9.26152
rhand -17.1915 -23.6152
rfingers 7.12502
rthumb 9.0506 -53.401
lclavicle 1.11071e-014 1.03368e-014
lhumerus -38.2075 -7.90505 91.2933
lradius 25.2551
lwrist -8.4613
lhand -23.7196 35.2727
lfingers 7.12502
lthumb 2.7482 65.2347
rfemur -23.2753 20.9446 21.8427
rtibia -5.81275
rfoot -51.0892 -40.8672
rtoes 3.3076
lfemur 7.40895 -42.4306 -38.6325
ltibia -6.12004
lfoot -39.9201 33.3097
ltoes -56.2111
315
root -6.75189 15.7723 2.0743 189.265 -83.8307 -177.386
lowerback 5.90106 1.15245 -3.40812
upperback -8.91366 1.04233 1.14219
thorax -13.1226 0.806714 3.00733
lowerneck -11.6616 1.89829 -3.28717
upperneck 51.9567 -1.09944 0.46863
head 25.698 -2.45726 0.0111877
rclavicle 3.45388e-015 2.80286e-014
rhumerus -41.5025 31.1888 -87.9613
rradius 29.1239
rwrist -9.43009
rhand -17.0702 -23.9814
rfingers 7.12502
rthumb 9.16761 -53.7621
lclavicle 3.45388e-015 2.80286e-014
lhumerus -39.1239 -6.15036 90.2092
lradius 24.187
lwrist -9.59989
lhand -23.5905 34.985
lfingers 7.12502
lthumb 2.87287 64.9454
rfemur -22.9669 20.7086 21.5284
rtibia -6.0334
rfoot -49.4913 -41.3542
rtoes 5.03878
lfemur 8.16621 -42.618 -39.67
ltibia -6.32843
lfoot -39.8822 33.4157
ltoes -56.6455
316
root -6.87445 15.7586 2.03459 191.39 -84.1403 -179.466
lowerback 5.69766 1.0572 -3.31231
upperback -8.9538 0.923648 1.11939
thorax -13.0282 0.736229 2.95028
lowerneck -11.8514 1.80846 -3.12147
upperneck 51.9107 -1.22691 0.356889
head 25.7416 -2.46975 -0.118337
rclavicle -2.73329e-016 1.39149e-015
rhumerus -41.5783 29.834 -87.0544
rradius 28.777
rwrist -9.76311
rhand -17.1954 -24.6542
rfingers 7.12502
rthumb 9.04681 -54.4402
lclavicle -2.73329e-016 1.39149e-015
lhumerus -40.0937 -4.28791 88.9477
lradius 23.2935
lwrist -10.8791
lhand -23.5628 34.6338
lfingers 7.12502
lthumb 2.89961 64.5938
rfemur -22.337 20.4605 21.6732
rtibia -6.62673
rfoot -49.2195 -41.5756
rtoes 12.0342
lfemur 9.17663 -42.7986 -40.4822
ltibia -6.56487
lfoot -40.0071 33.3848
ltoes -56.6374
317
root -6.99575 15.7513 1.99547 191.001 -84.417 -178.948
lowerback 5.52947 0.99227 -2.96233
upperback -9.04964 0.879946 1.17629
thorax -13.0218 0.682605 2.82526
lowerneck -11.9179 1.63647 -3.09283
upperneck 51.8049 -1.51135 0.371325
head 25.6561 -2.55238 -0.175108
rclavicle 4.89507e-015 -7.95139e-016
rhumerus -41.7571 28.2874 -86.0887
rradius 28.4403
rwrist -9.78218
rhand -17.7202 -25.0444
rfingers 7.12502
rthumb 8.54034 -54.8517
lclavicle 4.89507e-015 -7.95139e-016
lhumerus -41.1221 -2.27294 87.5061
lradius 22.6148
lwrist -12.415
lhand -23.2943 34.6816
lfingers 7.12502
lthumb 3.15885 64.6379
rfemur -21.6844 20.2886 22.0674
rtibia -7.26418
rfoot -49.3225 -41.9591
rtoes 20.3454
lfemur 9.77629 -42.9429 -40.7516
ltibia -6.51493
lfoot -39.9322 33.5533
ltoes -56.776
318
root -7.11248 15.7513 1.95587 187.987 -84.6474 -175.764
lowerback 5.44065 0.94174 -2.38232
upperback -9.14117 0.890139 1.32053
thorax -13.06 0.638087 2.65756
lowerneck -11.9861 1.40073 -3.2364
upperneck 51.6279 -1.85329 0.449497
head 25.4916 -2.68027 -0.167514
rclavicle -2.93207e-015 -4.77083e-015
rhumerus -41.722 26.484 -84.8557
rradius 28.4516
rwrist -10.6537
rhand -17.6635 -25.7781
rfingers 7.12502
rthumb 8.59507 -55.5831
lclavicle -2.93207e-015 -4.77083e-015
lhumerus -42.1167 -0.46722 86.1186
lradius 22.129
lwrist -13.476
lhand -22.8364 34.8309
lfingers 7.12502
lthumb 3.60108 64.7803
rfemur -21.7607 19.9692 22.2768
rtibia -6.81926
rfoot -49.5726 -41.1296
rtoes 28.2943
lfemur 10.0681 -43.0359 -40.5539
ltibia -6.2562
lfoot -39.826 33.884
ltoes -57.4236
